<svg width="1024" height="1024" viewBox="0 0 32 32" xmlns="http://www.w3.org/2000/svg"><path fill="rgb(172,244,201)" d="M6,17h1v1H6z"/><path fill="rgb(157,216,204)" d="M6,18h1v1H6z"/><path fill="rgb(143,188,208)" d="M6,19h1v1H6z"/><path fill="rgb(129,160,212)" d="M6,20h1v1H6z"/><path fill="rgb(172,244,201)" d="M7,16h1v1H7z"/><path fill="rgb(157,216,204)" d="M7,17h1v1H7z"/><path fill="rgb(143,188,208)" d="M7,18h1v1H7z"/><path fill="rgb(129,160,212)" d="M7,19h1v1H7z"/><path fill="rgb(115,132,215)" d="M7,20h1v1H7z"/><path fill="rgb(101,104,219)" d="M7,21h1v1H7z"/><path fill="rgb(172,244,201)" d="M8,18h1v1H8z"/><path fill="rgb(157,216,204)" d="M8,19h1v1H8z"/><path fill="rgb(143,188,208)" d="M8,20h1v1H8z"/><path fill="rgb(129,160,212)" d="M8,21h1v1H8z"/><path fill="rgb(115,132,215)" d="M8,22h1v1H8z"/><path fill="rgb(101,104,219)" d="M8,23h1v1H8z"/><path fill="rgb(87,76,223)" d="M8,24h1v1H8z"/><path fill="rgb(73,49,227)" d="M8,25h1v1H8z"/><path fill="rgb(172,244,201)" d="M9,16h1v1H9z"/><path fill="rgb(157,216,204)" d="M9,17h1v1H9z"/><path fill="rgb(143,188,208)" d="M9,18h1v1H9z"/><path fill="rgb(129,160,212)" d="M9,19h1v1H9z"/><path fill="rgb(115,132,215)" d="M9,20h1v1H9z"/><path fill="rgb(101,104,219)" d="M9,21h1v1H9z"/><path fill="rgb(87,76,223)" d="M9,22h1v1H9z"/><path fill="rgb(73,49,227)" d="M9,23h1v1H9z"/><path fill="rgb(172,244,201)" d="M10,15h1v1H10z"/><path fill="rgb(157,216,204)" d="M10,16h1v1H10z"/><path fill="rgb(143,188,208)" d="M10,17h1v1H10z"/><path fill="rgb(129,160,212)" d="M10,18h1v1H10z"/><path fill="rgb(115,132,215)" d="M10,19h1v1H10z"/><path fill="rgb(101,104,219)" d="M10,20h1v1H10z"/><path fill="rgb(87,76,223)" d="M10,21h1v1H10z"/><path fill="rgb(73,49,227)" d="M10,22h1v1H10z"/><path fill="rgb(172,244,201)" d="M11,14h1v1H11z"/><path fill="rgb(157,216,204)" d="M11,15h1v1H11z"/><path fill="rgb(143,188,208)" d="M11,16h1v1H11z"/><path fill="rgb(129,160,212)" d="M11,17h1v1H11z"/><path fill="rgb(115,132,215)" d="M11,18h1v1H11z"/><path fill="rgb(101,104,219)" d="M11,19h1v1H11z"/><path fill="rgb(87,76,223)" d="M11,20h1v1H11z"/><path fill="rgb(73,49,227)" d="M11,21h1v1H11z"/><path fill="rgb(172,244,201)" d="M12,13h1v1H12z"/><path fill="rgb(157,216,204)" d="M12,14h1v1H12z"/><path fill="rgb(143,188,208)" d="M12,15h1v1H12z"/><path fill="rgb(129,160,212)" d="M12,16h1v1H12z"/><path fill="rgb(115,132,215)" d="M12,17h1v1H12z"/><path fill="rgb(101,104,219)" d="M12,18h1v1H12z"/><path fill="rgb(87,76,223)" d="M12,19h1v1H12z"/><path fill="rgb(73,49,227)" d="M12,20h1v1H12z"/><path fill="rgb(172,244,201)" d="M13,15h1v1H13z"/><path fill="rgb(157,216,204)" d="M13,16h1v1H13z"/><path fill="rgb(143,188,208)" d="M13,17h1v1H13z"/><path fill="rgb(129,160,212)" d="M13,18h1v1H13z"/><path fill="rgb(115,132,215)" d="M13,19h1v1H13z"/><path fill="rgb(101,104,219)" d="M13,20h1v1H13z"/><path fill="rgb(87,76,223)" d="M13,21h1v1H13z"/><path fill="rgb(73,49,227)" d="M13,22h1v1H13z"/><path fill="rgb(172,244,201)" d="M14,14h1v1H14z"/><path fill="rgb(157,216,204)" d="M14,15h1v1H14z"/><path fill="rgb(143,188,208)" d="M14,16h1v1H14z"/><path fill="rgb(129,160,212)" d="M14,17h1v1H14z"/><path fill="rgb(115,132,215)" d="M14,18h1v1H14z"/><path fill="rgb(101,104,219)" d="M14,19h1v1H14z"/><path fill="rgb(87,76,223)" d="M14,20h1v1H14z"/><path fill="rgb(73,49,227)" d="M14,21h1v1H14z"/><path fill="rgb(172,244,201)" d="M15,13h1v1H15z"/><path fill="rgb(157,216,204)" d="M15,14h1v1H15z"/><path fill="rgb(143,188,208)" d="M15,15h1v1H15z"/><path fill="rgb(129,160,212)" d="M15,16h1v1H15z"/><path fill="rgb(115,132,215)" d="M15,17h1v1H15z"/><path fill="rgb(101,104,219)" d="M15,18h1v1H15z"/><path fill="rgb(87,76,223)" d="M15,19h1v1H15z"/><path fill="rgb(73,49,227)" d="M15,20h1v1H15z"/><path fill="rgb(172,244,201)" d="M16,15h1v1H16z"/><path fill="rgb(157,216,204)" d="M16,16h1v1H16z"/><path fill="rgb(143,188,208)" d="M16,17h1v1H16z"/><path fill="rgb(129,160,212)" d="M16,18h1v1H16z"/><path fill="rgb(115,132,215)" d="M16,19h1v1H16z"/><path fill="rgb(101,104,219)" d="M16,20h1v1H16z"/><path fill="rgb(87,76,223)" d="M16,21h1v1H16z"/><path fill="rgb(73,49,227)" d="M16,22h1v1H16z"/><path fill="rgb(172,244,201)" d="M17,17h1v1H17z"/><path fill="rgb(157,216,204)" d="M17,18h1v1H17z"/><path fill="rgb(143,188,208)" d="M17,19h1v1H17z"/><path fill="rgb(129,160,212)" d="M17,20h1v1H17z"/><path fill="rgb(115,132,215)" d="M17,21h1v1H17z"/><path fill="rgb(101,104,219)" d="M17,22h1v1H17z"/><path fill="rgb(87,76,223)" d="M17,23h1v1H17z"/><path fill="rgb(73,49,227)" d="M17,24h1v1H17z"/><path fill="rgb(172,244,201)" d="M18,15h1v1H18z"/><path fill="rgb(157,216,204)" d="M18,16h1v1H18z"/><path fill="rgb(143,188,208)" d="M18,17h1v1H18z"/><path fill="rgb(129,160,212)" d="M18,18h1v1H18z"/><path fill="rgb(115,132,215)" d="M18,19h1v1H18z"/><path fill="rgb(101,104,219)" d="M18,20h1v1H18z"/><path fill="rgb(87,76,223)" d="M18,21h1v1H18z"/><path fill="rgb(73,49,227)" d="M18,22h1v1H18z"/><path fill="rgb(172,244,201)" d="M19,17h1v1H19z"/><path fill="rgb(157,216,204)" d="M19,18h1v1H19z"/><path fill="rgb(143,188,208)" d="M19,19h1v1H19z"/><path fill="rgb(129,160,212)" d="M19,20h1v1H19z"/><path fill="rgb(115,132,215)" d="M19,21h1v1H19z"/><path fill="rgb(101,104,219)" d="M19,22h1v1H19z"/><path fill="rgb(87,76,223)" d="M19,23h1v1H19z"/><path fill="rgb(73,49,227)" d="M19,24h1v1H19z"/><path fill="rgb(172,244,201)" d="M20,15h1v1H20z"/><path fill="rgb(157,216,204)" d="M20,16h1v1H20z"/><path fill="rgb(143,188,208)" d="M20,17h1v1H20z"/><path fill="rgb(129,160,212)" d="M20,18h1v1H20z"/><path fill="rgb(115,132,215)" d="M20,19h1v1H20z"/><path fill="rgb(101,104,219)" d="M20,20h1v1H20z"/><path fill="rgb(87,76,223)" d="M20,21h1v1H20z"/><path fill="rgb(73,49,227)" d="M20,22h1v1H20z"/><path fill="rgb(172,244,201)" d="M21,17h1v1H21z"/><path fill="rgb(157,216,204)" d="M21,18h1v1H21z"/><path fill="rgb(143,188,208)" d="M21,19h1v1H21z"/><path fill="rgb(129,160,212)" d="M21,20h1v1H21z"/><path fill="rgb(115,132,215)" d="M21,21h1v1H21z"/><path fill="rgb(101,104,219)" d="M21,22h1v1H21z"/><path fill="rgb(87,76,223)" d="M21,23h1v1H21z"/><path fill="rgb(73,49,227)" d="M21,24h1v1H21z"/><path fill="rgb(172,244,201)" d="M22,15h1v1H22z"/><path fill="rgb(157,216,204)" d="M22,16h1v1H22z"/><path fill="rgb(143,188,208)" d="M22,17h1v1H22z"/><path fill="rgb(129,160,212)" d="M22,18h1v1H22z"/><path fill="rgb(115,132,215)" d="M22,19h1v1H22z"/><path fill="rgb(101,104,219)" d="M22,20h1v1H22z"/><path fill="rgb(87,76,223)" d="M22,21h1v1H22z"/><path fill="rgb(73,49,227)" d="M22,22h1v1H22z"/><path fill="rgb(172,244,201)" d="M23,14h1v1H23z"/><path fill="rgb(157,216,204)" d="M23,15h1v1H23z"/><path fill="rgb(143,188,208)" d="M23,16h1v1H23z"/><path fill="rgb(129,160,212)" d="M23,17h1v1H23z"/><path fill="rgb(115,132,215)" d="M23,18h1v1H23z"/><path fill="rgb(101,104,219)" d="M23,19h1v1H23z"/><path fill="rgb(87,76,223)" d="M23,20h1v1H23z"/><path fill="rgb(73,49,227)" d="M23,21h1v1H23z"/><path fill="rgb(172,244,201)" d="M24,13h1v1H24z"/><path fill="rgb(157,216,204)" d="M24,14h1v1H24z"/><path fill="rgb(143,188,208)" d="M24,15h1v1H24z"/><path fill="rgb(129,160,212)" d="M24,16h1v1H24z"/><path fill="rgb(115,132,215)" d="M24,17h1v1H24z"/><path fill="rgb(101,104,219)" d="M24,18h1v1H24z"/><path fill="rgb(172,244,201)" d="M25,12h1v1H25z"/><path fill="rgb(157,216,204)" d="M25,13h1v1H25z"/><path fill="rgb(143,188,208)" d="M25,14h1v1H25z"/><path fill="rgb(129,160,212)" d="M25,15h1v1H25z"/></svg>